<svg xmlns="http://www.w3.org/2000/svg" width="20" height="18" viewBox="0 0 20 18">
    <g fill="none" fill-rule="evenodd">
        <path fill="#31394D" fill-rule="nonzero" d="M19.913 7.731l-2.136-1.74V2.532a.28.28 0 0 0-.277-.281h-.556a.28.28 0 0 0-.278.281v2.552L10.785.282a1.232 1.232 0 0 0-1.57 0L.089 7.732a.238.238 0 0 0-.035.333l.493.616c.083.101.23.12.333.035l1.344-1.097v9.819c0 .309.25.562.556.562h14.443a.56.56 0 0 0 .555-.562V7.622l1.348 1.1c.1.085.25.068.333-.034l.493-.616a.254.254 0 0 0-.038-.34zm-3.247 9.144H3.334V6.712l6.517-5.323a.228.228 0 0 1 .292 0l6.523 5.326v10.16zm-7.051-9.79c-.924-.981-2.517-1.263-3.642-.271-1.226 1.076-1.292 3.01-.195 4.173l3.781 4.01a.6.6 0 0 0 .886 0l3.78-4.01c1.098-1.167 1.035-3.097-.194-4.173-1.455-1.276-3.107-.295-3.642.27L10 7.497l-.385-.411zm1.555.783c.302-.323 1.302-.942 2.15-.2.826.724.7 1.916.117 2.535L10 13.852l-3.437-3.65c-.58-.614-.708-1.813.118-2.534.77-.678 1.736-.239 2.15.2L10 9.11l1.17-1.24z"/>
    </g>
</svg>
