<svg height="18" viewBox="0 0 16 18" width="16" xmlns="http://www.w3.org/2000/svg"><path d="m13.764 2.123c-1.596-1.582-4.17-1.459-5.74.154l-6.43 6.61a.677.677 0 0 0 0 .939.633.633 0 0 0 .913 0l6.459-6.64c1.032-1.06 2.708-1.188 3.808-.2 1.203 1.084 1.248 2.972.135 4.116l-7.868 8.087a1.582 1.582 0 0 1 -2.28 0 1.692 1.692 0 0 1 0-2.344l7.41-7.623a.476.476 0 0 1 .684 0c.19.194.19.509 0 .703l-6.745 6.936a.677.677 0 0 0 0 .938c.252.259.661.259.913 0l6.746-6.936a1.858 1.858 0 0 0 -.126-2.698c-.716-.608-1.78-.5-2.434.174l-7.36 7.568a3.046 3.046 0 0 0 0 4.22 2.848 2.848 0 0 0 4.106 0l7.868-8.087c1.59-1.637 1.57-4.305-.058-5.917" fill="#fff" fill-rule="evenodd"/></svg>