<svg height="14" viewBox="0 0 14 14" width="14" xmlns="http://www.w3.org/2000/svg"><path d="m12.5 10.719v-10.063a.648.648 0 0 0 -.643-.656h-9.214c-1.184 0-2.143.979-2.143 2.188v10.062c0 .967.767 1.75 1.714 1.75h9.965a.326.326 0 0 0 .321-.328v-.219a.326.326 0 0 0 -.321-.328h-.089c-.107-.552-.086-1.359.01-1.8a.66.66 0 0 0 .4-.606zm-1.17 2.406h-9.117a.866.866 0 0 1 -.857-.875c0-.483.384-.875.857-.875h9.115a6.38 6.38 0 0 0 0 1.75zm.313-2.625h-9.429a1.67 1.67 0 0 0 -.857.243v-8.556c0-.724.576-1.312 1.286-1.312h9z" fill="#31394d"/></svg>