<svg height="16" viewBox="0 0 19 16" width="19" xmlns="http://www.w3.org/2000/svg"><g fill="#748aa1" fill-rule="evenodd"><path d="m16.883 14.198h-14.794v-11.08h2.22v.71c0 .393.33.709.739.709.408 0 .74-.316.74-.71v-.707h7.396v.709c0 .393.332.709.74.709s.74-.316.74-.71v-.708h2.219v11.079zm.74-12.497h-2.96v-.711c0-.39-.33-.709-.739-.709-.408 0-.74.32-.74.71v.709h-7.397v-.71c0-.39-.33-.709-.74-.709-.408 0-.739.32-.739.71v.709h-2.958c-.408 0-.74.319-.74.709v12.497c0 .393.332.709.74.709h16.273c.409 0 .74-.316.74-.71v-12.495c0-.39-.331-.71-.74-.71z"/><path d="m7 6.282c-.392 0-.71.298-.71.667s.318.667.71.667c.393 0 .71-.298.71-.667s-.317-.667-.71-.667m-2.13 0c-.392 0-.71.298-.71.667s.318.667.71.667c.393 0 .71-.298.71-.667s-.317-.667-.71-.667m4.26 2c-.392 0-.71.298-.71.667s.318.667.71.667c.393 0 .711-.298.711-.667s-.318-.667-.71-.667m-2.131 0c-.392 0-.71.298-.71.667s.318.667.71.667c.393 0 .71-.298.71-.667s-.317-.667-.71-.667m6.391 0c-.392 0-.71.298-.71.667s.318.667.71.667c.393 0 .71-.298.71-.667s-.317-.667-.71-.667m-2.13 0c-.392 0-.71.298-.71.667s.318.667.71.667c.393 0 .71-.298.71-.667s-.317-.667-.71-.667m2.13 2.668c-.392 0-.71.297-.71.666s.318.666.71.666c.393 0 .71-.297.71-.666 0-.37-.317-.667-.71-.667m-2.13.001c-.392 0-.71.297-.71.666s.318.666.71.666c.393 0 .71-.297.71-.666 0-.37-.317-.667-.71-.667m-6.391-2.667c-.392 0-.71.298-.71.667s.318.667.71.667c.393 0 .71-.298.71-.667s-.317-.667-.71-.667"/></g></svg>