<svg xmlns="http://www.w3.org/2000/svg" width="20" height="20" viewBox="0 0 20 20">
    <path fill="#31394D" fill-rule="nonzero" d="M17.857 2.5h-2.143V.469c0-.258-.24-.469-.535-.469h-.358c-.294 0-.535.21-.535.469V2.5H5.714V.469C5.714.21 5.474 0 5.18 0H4.82c-.294 0-.535.21-.535.469V2.5H2.143C.96 2.5 0 3.34 0 4.375v13.75C0 19.16.96 20 2.143 20h15.714C19.04 20 20 19.16 20 18.125V4.375C20 3.34 19.04 2.5 17.857 2.5zM2.143 3.75h15.714c.393 0 .714.281.714.625V6.25H1.43V4.375c0-.344.321-.625.714-.625zm15.714 15H2.143c-.393 0-.714-.281-.714-.625V7.5H18.57v10.625c0 .344-.321.625-.714.625zM6.607 12.5H4.821c-.294 0-.535-.21-.535-.469V10.47c0-.258.24-.469.535-.469h1.786c.295 0 .536.21.536.469v1.562c0 .258-.241.469-.536.469zm4.286 0H9.107c-.294 0-.536-.21-.536-.469V10.47c0-.258.242-.469.536-.469h1.786c.294 0 .536.21.536.469v1.562c0 .258-.242.469-.536.469zm4.286 0h-1.786c-.295 0-.536-.21-.536-.469V10.47c0-.258.241-.469.536-.469h1.786c.294 0 .535.21.535.469v1.562c0 .258-.24.469-.535.469zm-4.286 3.75H9.107c-.294 0-.536-.21-.536-.469V14.22c0-.258.242-.469.536-.469h1.786c.294 0 .536.21.536.469v1.562c0 .258-.242.469-.536.469zm-4.286 0H4.821c-.294 0-.535-.21-.535-.469V14.22c0-.258.24-.469.535-.469h1.786c.295 0 .536.21.536.469v1.562c0 .258-.241.469-.536.469zm8.572 0h-1.786c-.295 0-.536-.21-.536-.469V14.22c0-.258.241-.469.536-.469h1.786c.294 0 .535.21.535.469v1.562c0 .258-.24.469-.535.469z"/>
</svg>
