<svg xmlns="http://www.w3.org/2000/svg" width="15" height="20" viewBox="0 0 15 20">
    <path fill="#31394D" fill-rule="nonzero" d="M13.125 2.5h-3.46A2.189 2.189 0 0 0 7.5 0a2.189 2.189 0 0 0-2.165 2.5H1.875C.84 2.5 0 3.34 0 4.375v13.75C0 19.16.84 20 1.875 20h11.25C14.16 20 15 19.16 15 18.125V4.375C15 3.34 14.16 2.5 13.125 2.5zM7.5 1.25c.52 0 .938.418.938.938 0 .519-.418.937-.938.937a.935.935 0 0 1-.938-.938c0-.519.418-.937.938-.937zm6.25 16.875a.627.627 0 0 1-.625.625H1.875a.627.627 0 0 1-.625-.625V4.375c0-.344.281-.625.625-.625H3.75v.781c0 .258.21.469.469.469h6.562a.47.47 0 0 0 .469-.469V3.75h1.875c.344 0 .625.281.625.625v13.75zm-2.3-9.234a.473.473 0 0 0-.665-.004l-4.598 4.562-1.968-1.976a.47.47 0 0 0-.664 0l-.332.332a.47.47 0 0 0 0 .664l2.632 2.64a.47.47 0 0 0 .665 0l5.265-5.222a.473.473 0 0 0 .004-.664l-.34-.332z"/>
</svg>
