<svg height="22" viewBox="0 0 19 22" width="19" xmlns="http://www.w3.org/2000/svg"><g fill="#b8c5d3" fill-rule="evenodd"><path d="m13.757 19.333h-8.376l-.744-14.583h9.864zm3.276-16.25h-4.147v-1.25a.833.833 0 0 0 -.829-.833h-4.976a.833.833 0 0 0 -.829.833v1.25h-4.146a.833.833 0 0 0 0 1.667h.87l.79 15.458a.83.83 0 0 0 .828.792h9.95a.83.83 0 0 0 .83-.792l.788-15.458h.87a.833.833 0 1 0 0-1.667z"/><path d="m7.91 17.042c.344 0 .623-.28.623-.625v-8.75a.623.623 0 1 0 -1.244 0v8.75c0 .345.278.625.622.625m3.317 0c.344 0 .622-.28.622-.625v-8.75a.623.623 0 1 0 -1.244 0v8.75c0 .345.278.625.622.625"/></g></svg>