<svg xmlns="http://www.w3.org/2000/svg" width="20" height="21" viewBox="0 0 20 21">
    <path fill="#31394D" fill-rule="nonzero" d="M11.25 9.125a5.61 5.61 0 0 0-1.23-3.512l2.48-2.48v1.773c0 .258.21.469.469.469h.312a.47.47 0 0 0 .469-.469V1.47A.47.47 0 0 0 13.281 1H9.844a.47.47 0 0 0-.469.469v.312c0 .258.21.469.469.469h1.773l-2.48 2.48A5.626 5.626 0 0 0 0 9.125a5.626 5.626 0 0 0 5.625 5.625 5.626 5.626 0 0 0 5.625-5.625zM5.625 13.5A4.37 4.37 0 0 1 1.25 9.125 4.37 4.37 0 0 1 5.625 4.75 4.37 4.37 0 0 1 10 9.125 4.37 4.37 0 0 1 5.625 13.5zM20 7.719v3.437a.47.47 0 0 1-.469.469h-.312a.47.47 0 0 1-.469-.469V9.383l-2.48 2.48A5.626 5.626 0 0 1 11.875 21a5.625 5.625 0 0 1-5.594-5.031 6.68 6.68 0 0 0 1.235-.235 4.37 4.37 0 0 0 4.359 4.016 4.37 4.37 0 0 0 4.375-4.375 4.37 4.37 0 0 0-4.016-4.36 7.02 7.02 0 0 0 .235-1.234 5.592 5.592 0 0 1 2.918 1.2l2.48-2.481h-1.773a.47.47 0 0 1-.469-.469V7.72a.47.47 0 0 1 .469-.469h3.437a.47.47 0 0 1 .469.469z"/>
</svg>
