<svg xmlns="http://www.w3.org/2000/svg" width="16" height="14" viewBox="0 0 16 14">
    <path fill="#31394D" fill-rule="evenodd" d="M14.667 9.724L11.943 7l2.724-2.723v5.447zm-4.334.59a.355.355 0 0 1-.354.353H1.687a.355.355 0 0 1-.354-.354V3.687c0-.193.16-.353.354-.353H9.98c.195 0 .354.16.354.353v6.626zm4.529-8.116L11.667 5.39V3.687c0-.93-.757-1.686-1.688-1.686H1.687C.757 2 0 2.757 0 3.687v6.626C0 11.243.757 12 1.687 12H9.98c.93 0 1.688-.757 1.688-1.687V8.61l3.195 3.197A.668.668 0 0 0 16 11.333V2.667a.667.667 0 0 0-1.138-.47z"/>
</svg>
