<svg xmlns="http://www.w3.org/2000/svg" width="18" height="18" viewBox="0 0 18 18">
    <path fill="#31394D" fill-rule="nonzero" d="M9 1.125a3.94 3.94 0 0 1 3.938 3.938A3.94 3.94 0 0 1 9 9a3.94 3.94 0 0 1-3.938-3.938A3.94 3.94 0 0 1 9 1.126zm4.5 11.25a3.38 3.38 0 0 1 3.375 3.375v1.125H1.125V15.75A3.38 3.38 0 0 1 4.5 12.375c2.988 0 2.366.563 4.5.563 2.141 0 1.508-.563 4.5-.563zM9 0a5.064 5.064 0 0 0-5.063 5.063A5.064 5.064 0 0 0 9 10.125a5.064 5.064 0 0 0 5.063-5.063A5.064 5.064 0 0 0 9 0zm4.5 11.25c-3.248 0-2.496.563-4.5.563-1.997 0-1.255-.563-4.5-.563a4.5 4.5 0 0 0-4.5 4.5v1.125C0 17.497.503 18 1.125 18h15.75c.622 0 1.125-.503 1.125-1.125V15.75a4.5 4.5 0 0 0-4.5-4.5z"/>
</svg>
