<?xml version="1.0" encoding="UTF-8"?>
<svg width="14px" height="22px" viewBox="0 0 14 22" version="1.1" xmlns="http://www.w3.org/2000/svg" xmlns:xlink="http://www.w3.org/1999/xlink">
    <!-- Generator: sketchtool 52 (66869) - http://www.bohemiancoding.com/sketch -->
    <title>753C6EBF-72BA-421C-B9E3-40C68430E388</title>
    <desc>Created with sketchtool.</desc>
    <g id="Page-1" stroke="none" stroke-width="1" fill="none" fill-rule="evenodd">
        <g id="Профиль" transform="translate(-133.000000, -393.000000)" fill="#31394D" fill-rule="nonzero">
            <g id="Данные" transform="translate(110.000000, 101.000000)">
                <g id="mobile-icon" transform="translate(23.000000, 292.000000)">
                    <g id="mobile">
                        <path d="M8.2,17.25 C8.2,17.9414062 7.66375,18.5 7,18.5 C6.33625,18.5 5.8,17.9414062 5.8,17.25 C5.8,16.5585937 6.33625,16 7,16 C7.66375,16 8.2,16.5585937 8.2,17.25 Z M13,2.875 L13,19.125 C13,20.1601562 12.19375,21 11.2,21 L2.8,21 C1.80625,21 1,20.1601562 1,19.125 L1,2.875 C1,1.83984375 1.80625,1 2.8,1 L11.2,1 C12.19375,1 13,1.83984375 13,2.875 Z M11.8,2.875 C11.8,2.53125 11.53,2.25 11.2,2.25 L2.8,2.25 C2.47,2.25 2.2,2.53125 2.2,2.875 L2.2,19.125 C2.2,19.46875 2.47,19.75 2.8,19.75 L11.2,19.75 C11.53,19.75 11.8,19.46875 11.8,19.125 L11.8,2.875 Z" id="Shape"></path>
                    </g>
                </g>
            </g>
        </g>
    </g>
</svg>