<svg height="14" viewBox="0 0 14 14" width="14" xmlns="http://www.w3.org/2000/svg"><path d="m6.538.085-5.688 2.167c-.51.194-.85.694-.85 1.25v6.253c0 .505.282.966.725 1.191l5.687 2.89c.37.188.804.188 1.173 0l5.688-2.89c.445-.225.724-.689.724-1.191v-6.253a1.33 1.33 0 0 0 -.85-1.247l-5.688-2.167a1.27 1.27 0 0 0 -.921-.003zm.462.775 6.125 2.333v.009l-6.125 2.697-6.125-2.697v-.009zm-6.125 3.311 5.688 2.503v6.242l-5.688-2.89v-5.854zm6.563 8.745v-6.242l5.687-2.503v5.859l-5.688 2.886z" fill="#31394d"/></svg>