<svg xmlns="http://www.w3.org/2000/svg" width="18" height="18" viewBox="0 0 18 18">
    <g fill="#31394D" fill-rule="evenodd">
        <path d="M2.32 12.475zm.014.022v0zm5.238 3.58c.73.115 1.5.115 2.231 0v-1.253c0-.322.21-.607.518-.702a5.503 5.503 0 0 0 2.114-1.223.732.732 0 0 1 .866-.094l1.086.635a6.987 6.987 0 0 0 .72-1.06c.154-.279.293-.57.41-.869l-1.09-.635a.738.738 0 0 1-.344-.801c.099-.427.15-.85.15-1.258 0-.4-.048-.812-.143-1.227a.738.738 0 0 1 .352-.798l1.09-.628a6.792 6.792 0 0 0-.455-.96c-.003-.005-.018-.034-.022-.039l-.03-.05a7.14 7.14 0 0 0-.608-.886l-1.09.628a.734.734 0 0 1-.867-.1 5.588 5.588 0 0 0-2.14-1.246.734.734 0 0 1-.517-.702V1.556a7.284 7.284 0 0 0-2.231 0V2.81a.737.737 0 0 1-.522.702 5.468 5.468 0 0 0-2.11 1.223.738.738 0 0 1-.87.094l-1.086-.635a7.46 7.46 0 0 0-1.127 1.93l1.087.635a.733.733 0 0 1 .345.8c-.1.427-.147.85-.147 1.259 0 .399.047.812.14 1.227a.736.736 0 0 1-.35.798l-1.093.628c.11.28.238.56.385.836l.107.186c.003.009.01.018.014.026.18.308.386.605.61.886l1.093-.627a.734.734 0 0 1 .866.099 5.541 5.541 0 0 0 2.136 1.246c.309.095.522.38.522.702v1.254zm1.115 1.556c-.69 0-1.369-.08-2.026-.24a.734.734 0 0 1-.557-.713v-1.337a7.105 7.105 0 0 1-1.777-1.033l-1.163.67a.731.731 0 0 1-.9-.134 8.742 8.742 0 0 1-1.225-1.66l-.107-.18a8.773 8.773 0 0 1-.686-1.667.736.736 0 0 1 .341-.842l1.16-.669a6.854 6.854 0 0 1 .007-2.063l-1.16-.677a.739.739 0 0 1-.333-.848 8.592 8.592 0 0 1 .895-1.996 8.693 8.693 0 0 1 1.145-1.497.73.73 0 0 1 .9-.128l1.163.678a6.874 6.874 0 0 1 1.74-1.007V.954c0-.34.23-.634.557-.714a8.705 8.705 0 0 1 4.049 0c.33.08.561.375.561.714V2.29a7.072 7.072 0 0 1 1.773 1.034l1.163-.67a.736.736 0 0 1 .903.134 8.764 8.764 0 0 1 1.237 1.679c.334.584.595 1.195.778 1.826a.735.735 0 0 1-.337.844l-1.164.669c.051.34.077.678.077 1.01 0 .346-.03.698-.084 1.053l1.16.677c.293.171.433.521.334.846a8.284 8.284 0 0 1-.892 1.992 8.838 8.838 0 0 1-1.145 1.502.735.735 0 0 1-.903.128l-1.16-.677a6.938 6.938 0 0 1-1.74 1.007v1.336c0 .339-.231.633-.561.714-.654.159-1.336.239-2.023.239z"/>
        <path d="M8.687 6.995a1.822 1.822 0 0 0 0 3.643c1.002 0 1.82-.817 1.82-1.821a1.824 1.824 0 0 0-1.82-1.822zm0 4.745a2.926 2.926 0 0 1-2.921-2.923 2.926 2.926 0 0 1 2.921-2.924 2.926 2.926 0 0 1 2.922 2.924 2.926 2.926 0 0 1-2.922 2.923z"/>
    </g>
</svg>
