<svg xmlns="http://www.w3.org/2000/svg" width="18" height="17" viewBox="0 0 18 17">
    <path fill="#31394D" fill-rule="nonzero" d="M1.687 1.417h4.64c.232 0 .421.199.421.442v.296c0 .243-.19.442-.421.442h-4.64c-.31 0-.562.266-.562.59v10.626c0 .324.253.59.562.59h4.64c.232 0 .421.199.421.442v.296c0 .243-.19.442-.421.442h-4.64C.756 15.583 0 14.79 0 13.813V3.187c0-.977.756-1.77 1.687-1.77zm9.806.72l-.25.261a.459.459 0 0 0 0 .627l4.64 4.848H6.045c-.232 0-.421.199-.421.443v.368c0 .244.19.443.421.443h9.838l-4.636 4.848a.459.459 0 0 0 0 .627l.25.262a.408.408 0 0 0 .597 0l5.782-6.05a.459.459 0 0 0 0-.628l-5.785-6.05a.408.408 0 0 0-.598 0z"/>
</svg>
